<mxfile host="app.diagrams.net" agent="Mozilla/5.0 (Windows NT 10.0; Win64; x64) AppleWebKit/537.36 (KHTML, like Gecko) Chrome/131.0.0.0 Safari/537.36 OPR/116.0.0.0" version="26.0.16">
  <diagram name="Página-1" id="rIrWCc4DfyKjqg0cVxEe">
    <mxGraphModel dx="669" dy="1208" grid="0" gridSize="10" guides="1" tooltips="1" connect="1" arrows="1" fold="1" page="0" pageScale="1" pageWidth="827" pageHeight="1169" math="0" shadow="0">
      <root>
        <mxCell id="0" />
        <mxCell id="1" parent="0" />
        <mxCell id="y6GnkfR5agLcvAIFFTK5-1" value="Início" style="ellipse;whiteSpace=wrap;html=1;aspect=fixed;" vertex="1" parent="1">
          <mxGeometry x="27" y="-76" width="80" height="80" as="geometry" />
        </mxCell>
        <mxCell id="y6GnkfR5agLcvAIFFTK5-2" value="INTEIRO A,B e S" style="rounded=1;whiteSpace=wrap;html=1;" vertex="1" parent="1">
          <mxGeometry x="7" y="40" width="120" height="60" as="geometry" />
        </mxCell>
        <mxCell id="y6GnkfR5agLcvAIFFTK5-3" value="Leia A" style="shape=manualInput;whiteSpace=wrap;html=1;" vertex="1" parent="1">
          <mxGeometry x="27" y="144" width="80" height="80" as="geometry" />
        </mxCell>
        <mxCell id="y6GnkfR5agLcvAIFFTK5-4" value="Leia B" style="shape=manualInput;whiteSpace=wrap;html=1;" vertex="1" parent="1">
          <mxGeometry x="29" y="261" width="80" height="80" as="geometry" />
        </mxCell>
        <mxCell id="y6GnkfR5agLcvAIFFTK5-5" value="S=A+B" style="rounded=1;whiteSpace=wrap;html=1;" vertex="1" parent="1">
          <mxGeometry x="200" y="271" width="120" height="60" as="geometry" />
        </mxCell>
        <mxCell id="y6GnkfR5agLcvAIFFTK5-6" value="Escreva S" style="shape=display;whiteSpace=wrap;html=1;" vertex="1" parent="1">
          <mxGeometry x="187.5" y="152" width="145" height="72" as="geometry" />
        </mxCell>
        <mxCell id="y6GnkfR5agLcvAIFFTK5-7" value="FIM" style="ellipse;whiteSpace=wrap;html=1;aspect=fixed;" vertex="1" parent="1">
          <mxGeometry x="220" y="17" width="80" height="80" as="geometry" />
        </mxCell>
        <mxCell id="y6GnkfR5agLcvAIFFTK5-8" value="" style="endArrow=classic;html=1;rounded=0;fontSize=12;startSize=8;endSize=8;curved=1;exitX=0.5;exitY=1;exitDx=0;exitDy=0;entryX=0.5;entryY=0;entryDx=0;entryDy=0;" edge="1" parent="1" source="y6GnkfR5agLcvAIFFTK5-2" target="y6GnkfR5agLcvAIFFTK5-3">
          <mxGeometry width="50" height="50" relative="1" as="geometry">
            <mxPoint x="175" y="225" as="sourcePoint" />
            <mxPoint x="225" y="175" as="targetPoint" />
          </mxGeometry>
        </mxCell>
        <mxCell id="y6GnkfR5agLcvAIFFTK5-9" value="" style="endArrow=classic;html=1;rounded=0;fontSize=12;startSize=8;endSize=8;curved=1;exitX=0.5;exitY=1;exitDx=0;exitDy=0;entryX=0.5;entryY=0;entryDx=0;entryDy=0;" edge="1" parent="1" source="y6GnkfR5agLcvAIFFTK5-1" target="y6GnkfR5agLcvAIFFTK5-2">
          <mxGeometry width="50" height="50" relative="1" as="geometry">
            <mxPoint x="175" y="225" as="sourcePoint" />
            <mxPoint x="225" y="175" as="targetPoint" />
          </mxGeometry>
        </mxCell>
        <mxCell id="y6GnkfR5agLcvAIFFTK5-10" style="edgeStyle=none;curved=1;rounded=0;orthogonalLoop=1;jettySize=auto;html=1;entryX=0.5;entryY=0;entryDx=0;entryDy=0;fontSize=12;startSize=8;endSize=8;" edge="1" parent="1" source="y6GnkfR5agLcvAIFFTK5-2" target="y6GnkfR5agLcvAIFFTK5-2">
          <mxGeometry relative="1" as="geometry" />
        </mxCell>
        <mxCell id="y6GnkfR5agLcvAIFFTK5-11" value="" style="endArrow=classic;html=1;rounded=0;fontSize=12;startSize=8;endSize=8;curved=1;exitX=0.5;exitY=1;exitDx=0;exitDy=0;entryX=0.475;entryY=0.225;entryDx=0;entryDy=0;entryPerimeter=0;" edge="1" parent="1" source="y6GnkfR5agLcvAIFFTK5-3" target="y6GnkfR5agLcvAIFFTK5-4">
          <mxGeometry width="50" height="50" relative="1" as="geometry">
            <mxPoint x="175" y="225" as="sourcePoint" />
            <mxPoint x="225" y="175" as="targetPoint" />
          </mxGeometry>
        </mxCell>
        <mxCell id="y6GnkfR5agLcvAIFFTK5-12" value="" style="endArrow=classic;html=1;rounded=0;fontSize=12;startSize=8;endSize=8;curved=1;exitX=1;exitY=0.5;exitDx=0;exitDy=0;entryX=0;entryY=0.5;entryDx=0;entryDy=0;" edge="1" parent="1" source="y6GnkfR5agLcvAIFFTK5-4" target="y6GnkfR5agLcvAIFFTK5-5">
          <mxGeometry width="50" height="50" relative="1" as="geometry">
            <mxPoint x="175" y="225" as="sourcePoint" />
            <mxPoint x="225" y="175" as="targetPoint" />
          </mxGeometry>
        </mxCell>
        <mxCell id="y6GnkfR5agLcvAIFFTK5-13" value="" style="endArrow=classic;html=1;rounded=0;fontSize=12;startSize=8;endSize=8;curved=1;exitX=0.5;exitY=0;exitDx=0;exitDy=0;entryX=0;entryY=0;entryDx=72.625;entryDy=72;entryPerimeter=0;" edge="1" parent="1" source="y6GnkfR5agLcvAIFFTK5-5" target="y6GnkfR5agLcvAIFFTK5-6">
          <mxGeometry width="50" height="50" relative="1" as="geometry">
            <mxPoint x="175" y="225" as="sourcePoint" />
            <mxPoint x="225" y="175" as="targetPoint" />
            <Array as="points" />
          </mxGeometry>
        </mxCell>
        <mxCell id="y6GnkfR5agLcvAIFFTK5-14" value="" style="endArrow=classic;html=1;rounded=0;fontSize=12;startSize=8;endSize=8;curved=1;entryX=0.5;entryY=1;entryDx=0;entryDy=0;" edge="1" parent="1" target="y6GnkfR5agLcvAIFFTK5-7">
          <mxGeometry width="50" height="50" relative="1" as="geometry">
            <mxPoint x="260" y="155" as="sourcePoint" />
            <mxPoint x="270" y="234" as="targetPoint" />
            <Array as="points" />
          </mxGeometry>
        </mxCell>
      </root>
    </mxGraphModel>
  </diagram>
</mxfile>
